<svg xmlns="http://www.w3.org/2000/svg" viewBox="0 0 480 512"><!--!Font Awesome Free 6.7.2 by @fontawesome - https://fontawesome.com License - https://fontawesome.com/license/free Copyright 2024 Fonticons, Inc.--><path d="M438.7 212.3l-11.2-28.1-19.9-49.8C390.4 91.6 349.6 64 303.5 64h-127c-46.1 0-86.9 27.6-104 70.4l-19.9 49.8-11.2 28.1C17.2 221.5 0 244.7 0 272v48c0 16.1 6.2 30.7 16 41.9V416c0 17.7 14.3 32 32 32h32c17.7 0 32-14.3 32-32v-32h256v32c0 17.7 14.3 32 32 32h32c17.7 0 32-14.3 32-32v-54.1c9.8-11.3 16-25.8 16-41.9v-48c0-27.3-17.2-50.5-41.3-59.7zm-306.7-54.2c7.3-18.2 24.9-30.2 44.6-30.2h127c19.6 0 37.3 12 44.6 30.2L368 208H112l19.9-49.8zM80 319.8c-19.2 0-32-12.8-32-31.9S60.8 256 80 256s48 28.7 48 47.9-28.8 16-48 16zm320 0c-19.2 0-48 3.2-48-16S380.8 256 400 256s32 12.8 32 31.9-12.8 31.9-32 31.9z"/></svg>